<?xml version="1.0" encoding="UTF-8"?>
<svg width="25px" height="24px" viewBox="0 0 25 24" version="1.1" xmlns="http://www.w3.org/2000/svg" xmlns:xlink="http://www.w3.org/1999/xlink">
    <!-- Generator: sketchtool 62 (101010) - https://sketch.com -->
    <title>688272AD-4F46-420A-9B98-38F20F57A08C</title>
    <desc>Created with sketchtool.</desc>
    <g id="Page-1" stroke="none" stroke-width="1" fill="none" fill-rule="evenodd">
        <g id="Outlook-Template" transform="translate(-420.000000, -1783.000000)" fill="#838996" fill-rule="nonzero">
            <g id="Group-11" transform="translate(281.000000, 1722.000000)">
                <g id="Social_inactive" transform="translate(24.000000, 61.000000)">
                    <path d="M127.2,0 C133.827417,0 139.2,5.372583 139.2,12 C139.2,18.627417 133.827417,24 127.2,24 C120.572583,24 115.2,18.627417 115.2,12 C115.2,5.372583 120.572583,0 127.2,0 Z M132.173603,6.4 L123.026397,6.4 C122.238573,6.4 121.6,7.03693642 121.6,7.82312413 L121.6,16.9768759 C121.6,17.7627363 122.238573,18.4 123.026397,18.4 L132.173603,18.4 C132.961427,18.4 133.6,17.7627363 133.6,16.9768759 L133.6,7.82312413 C133.6,7.03693642 132.961427,6.4 132.173603,6.4 Z M124.22499,11.2748875 C124.029588,11.5560429 123.963473,12.0807135 123.963473,12.4139105 C123.963473,14.4219295 125.601309,16.0558383 127.61391,16.0558383 C129.626839,16.0558383 131.264676,14.4219295 131.264676,12.4139105 C131.264676,12.0807135 131.217216,11.5642255 130.97501,11.2748875 L132.475051,11.2748875 L132.475051,16.8999591 C132.475051,17.1068161 132.307143,17.2750511 132.099959,17.2750511 L123.100041,17.2750511 C122.892857,17.2750511 122.724949,17.1068161 122.724949,16.8999591 L122.724949,11.2748875 L124.22499,11.2748875 Z M127.61391,10.1116439 C128.888438,10.1116439 129.921741,11.1426561 129.921741,12.4139105 C129.921741,13.6854922 128.888438,14.7161771 127.61391,14.7161771 C126.33971,14.7161771 125.306407,13.6854922 125.306407,12.4139105 C125.306407,11.1426561 126.33971,10.1116439 127.61391,10.1116439 Z M131.724867,7.90004091 C131.932051,7.90004091 132.099959,8.06794861 132.099959,8.27480566 L132.099959,9.40008183 C132.099959,9.60693888 131.932051,9.77484658 131.724867,9.77484658 L130.599918,9.77484658 C130.393061,9.77484658 130.225153,9.60693888 130.225153,9.40008183 L130.225153,8.27480566 C130.225153,8.06794861 130.393061,7.90004091 130.599918,7.90004091 L131.724867,7.90004091 Z" id="Instagram_inactive"></path>
                </g>
            </g>
        </g>
    </g>
</svg>